<svg xmlns="http://www.w3.org/2000/svg" xml:space="preserve" id="Layer_1" width="800" height="800" fill="#000" version="1.1" viewBox="0 0 513.389 513.389"><g><g><g fill="#fff"><path d="M256.691 222.573c-18.825 0-34.133 15.309-34.133 34.133s15.309 34.133 34.133 34.133 34.133-15.309 34.133-34.133-15.309-34.133-34.133-34.133zm0 51.2c-9.412 0-17.067-7.654-17.067-17.067 0-9.412 7.654-17.067 17.067-17.067 9.412 0 17.067 7.654 17.067 17.067-.001 9.412-7.655 17.067-17.067 17.067z"/><path d="M510.993 236.209a8.533 8.533 0 0 0 .461-9.557 8.474 8.474 0 0 0-8.695-3.977l-26.206 4.369a221.289 221.289 0 0 0-4.233-22.733l16.333-53.845a8.55 8.55 0 0 0-2.833-9.139 8.54 8.54 0 0 0-9.532-.768l-23.117 13.065a220.083 220.083 0 0 0-11.776-19.831l-3.063-56.252a8.557 8.557 0 0 0-5.786-7.62 8.536 8.536 0 0 0-9.224 2.543l-17.28 20.207a228.295 228.295 0 0 0-17.792-14.558l-22.153-51.891c-1.374-3.209-4.574-5.453-8.038-5.18a8.522 8.522 0 0 0-7.799 5.538l-9.318 24.883a218.89 218.89 0 0 0-21.751-7.62l-38.522-41.14a8.518 8.518 0 0 0-9.327-2.116 8.544 8.544 0 0 0-5.436 7.876l-.247 26.59c-7.859-.358-14.421-.282-22.963.29L192.349 9.828a8.56 8.56 0 0 0-9.489 1.203 8.527 8.527 0 0 0-2.415 9.25l8.849 25.037a222.681 222.681 0 0 0-21.547 8.141l-55.953-6.741c-3.422-.41-6.827 1.314-8.499 4.369a8.549 8.549 0 0 0 .896 9.532l16.905 20.54a219.617 219.617 0 0 0-17.425 14.967l-54.955 12.817a8.535 8.535 0 0 0-2.398 15.658l22.886 13.5a218.949 218.949 0 0 0-11.383 20.139l-47.096 30.737c-2.918 1.903-4.386 5.393-3.703 8.815s3.379 6.084 6.81 6.716l26.078 4.855a221.971 221.971 0 0 0-3.729 22.775L2.397 277.186a8.548 8.548 0 0 0-.469 9.557 8.543 8.543 0 0 0 8.704 3.977l26.197-4.361a221.155 221.155 0 0 0 4.232 22.733L24.729 362.92a8.55 8.55 0 0 0 2.833 9.139c2.722 2.176 6.502 2.492 9.532.768l23.108-13.047a223.35 223.35 0 0 0 11.784 19.84l3.063 56.226a8.557 8.557 0 0 0 5.786 7.62 8.532 8.532 0 0 0 9.224-2.543l17.271-20.19a225.092 225.092 0 0 0 17.801 14.575l22.144 51.857c1.365 3.209 4.361 5.274 8.038 5.18a8.522 8.522 0 0 0 7.799-5.538l9.318-24.858a220.844 220.844 0 0 0 21.768 7.629l38.494 41.114a8.55 8.55 0 0 0 6.238 2.697 8.523 8.523 0 0 0 8.525-8.448l.256-26.573c7.731.333 14.438.273 22.989-.299l50.313 25.506c1.254.631 2.5.947 3.951.922 4.83.256 8.61-3.797 8.61-8.533a8.57 8.57 0 0 0-1.186-4.352l-8.311-23.526a218.616 218.616 0 0 0 21.581-8.141l55.919 6.741c3.413.401 6.827-1.314 8.508-4.369a8.55 8.55 0 0 0-.896-9.523l-16.905-20.54a222 222 0 0 0 17.442-14.985l54.938-12.808c3.396-.785 5.965-3.567 6.494-7.014s-1.092-6.869-4.096-8.644l-22.886-13.491a220.913 220.913 0 0 0 11.392-20.156l47.095-30.737a8.53 8.53 0 0 0-3.107-15.531l-26.078-4.855a224.884 224.884 0 0 0 3.721-22.775l33.794-45.049zm-55.109 79.147a8.483 8.483 0 0 0 5.649 3.814l13.969 2.594-31.223 20.378a8.528 8.528 0 0 0-3.021 3.439c-4.574 9.455-10.01 18.756-16.179 27.639a8.562 8.562 0 0 0-1.323 6.69 8.5 8.5 0 0 0 3.994 5.521l12.288 7.253-36.48 8.499a8.64 8.64 0 0 0-4.019 2.202 205.946 205.946 0 0 1-24.491 20.403c-1.929 1.365-3.2 3.482-3.516 5.828s.358 4.719 1.869 6.545l9.079 11.034-37.12-4.48a8.732 8.732 0 0 0-4.531.691 202.823 202.823 0 0 1-30.037 10.82 8.532 8.532 0 0 0-5.308 4.275 8.513 8.513 0 0 0-.486 6.801l4.736 13.423-33.417-16.939c-1.391-.708-2.961-1.033-4.489-.896-12.134.887-20.258.819-31.863-.119a8.386 8.386 0 0 0-6.451 2.202 8.542 8.542 0 0 0-2.782 6.212l-.136 14.293-25.549-27.281a8.509 8.509 0 0 0-3.917-2.381 204.782 204.782 0 0 1-29.969-11.025 8.464 8.464 0 0 0-3.558-.785 8.55 8.55 0 0 0-3.251.64 8.538 8.538 0 0 0-4.745 4.898l-5.001 13.338-14.703-34.432a8.496 8.496 0 0 0-2.859-3.576c-8.713-6.289-16.905-13.21-24.363-20.582a8.594 8.594 0 0 0-6.349-2.458 8.499 8.499 0 0 0-6.127 2.978l-9.276 10.837-2.029-37.306A8.573 8.573 0 0 0 87.432 372a204.706 204.706 0 0 1-15.898-27.725 8.523 8.523 0 0 0-11.904-3.772l-12.382 6.989 10.829-35.686a8.53 8.53 0 0 0 .102-4.582c-2.586-10.189-4.395-20.796-5.385-31.539a8.523 8.523 0 0 0-3.277-5.982 8.505 8.505 0 0 0-6.622-1.656l-14.071 2.338 22.426-29.892a8.512 8.512 0 0 0 1.664-4.275 204.806 204.806 0 0 1 5.632-31.445 8.502 8.502 0 0 0-1.05-6.733 8.544 8.544 0 0 0-5.641-3.814l-13.969-2.594 31.223-20.378a8.513 8.513 0 0 0 3.021-3.439c4.548-9.404 9.984-18.705 16.171-27.639a8.53 8.53 0 0 0-2.671-12.203l-12.288-7.253 36.489-8.516a8.469 8.469 0 0 0 4.019-2.193 206.794 206.794 0 0 1 24.482-20.386 8.52 8.52 0 0 0 3.516-5.837 8.485 8.485 0 0 0-1.869-6.545L130.9 66.209l37.137 4.48a8.527 8.527 0 0 0 4.54-.7 203.648 203.648 0 0 1 30.012-10.803 8.547 8.547 0 0 0 5.316-4.275 8.552 8.552 0 0 0 .478-6.801l-4.745-13.423 33.442 16.939a8.533 8.533 0 0 0 4.48.896c12.1-.879 20.105-.819 31.863.119 2.338.213 4.693-.597 6.443-2.202a8.534 8.534 0 0 0 2.773-6.221l.137-14.302 25.566 27.307a8.539 8.539 0 0 0 3.925 2.381 203.842 203.842 0 0 1 29.935 11.017 8.502 8.502 0 0 0 6.818.145 8.567 8.567 0 0 0 4.745-4.898l5.001-13.355 14.703 34.458a8.594 8.594 0 0 0 2.859 3.567c8.704 6.281 16.905 13.201 24.363 20.582 1.69 1.664 3.985 2.517 6.357 2.449a8.528 8.528 0 0 0 6.127-2.978l9.276-10.846 2.039 37.333a8.46 8.46 0 0 0 1.468 4.344 204.764 204.764 0 0 1 15.88 27.699 8.546 8.546 0 0 0 5.129 4.48 8.553 8.553 0 0 0 6.775-.708l12.39-6.997-10.837 35.721a8.608 8.608 0 0 0-.102 4.582c2.594 10.18 4.403 20.787 5.385 31.514a8.536 8.536 0 0 0 3.285 5.982 8.48 8.48 0 0 0 6.613 1.664l14.08-2.347-22.426 29.892a8.512 8.512 0 0 0-1.664 4.275 205.152 205.152 0 0 1-5.632 31.445 8.536 8.536 0 0 0 1.05 6.732z"/><path d="M256.691 137.239c-65.877 0-119.467 53.589-119.467 119.467s53.589 119.467 119.467 119.467a8.536 8.536 0 0 0 8.533-8.533 8.536 8.536 0 0 0-8.533-8.533c-56.465 0-102.4-45.935-102.4-102.4s45.935-102.4 102.4-102.4 102.4 45.935 102.4 102.4c0 44.604-28.484 83.763-70.895 97.459a8.543 8.543 0 0 0-5.495 10.752c1.451 4.48 6.238 6.938 10.752 5.495 49.468-15.983 82.705-61.679 82.705-113.707-.001-65.877-53.59-119.467-119.467-119.467z"/></g></g></g></svg>